<?xml version="1.0" encoding="UTF-8" standalone="no"?>
<svg
   height="256"
   viewBox="0 -960 10240 10240"
   width="256"
   version="1.1"
   id="svg27196"
   xmlns="http://www.w3.org/2000/svg"
   xmlns:svg="http://www.w3.org/2000/svg">
  <defs
     id="defs27200" />
  <path
     d="m 2600,7760 q -297,0 -508.5,-211.5 Q 1880,7337 1880,7040 V 2981 Q 1718,2882 1619,2724.5 1520,2567 1520,2360 V 1280 Q 1520,983 1731.5,771.5 1943,560 2240,560 h 5760 q 297,0 508.5,211.5 Q 8720,983 8720,1280 v 1080 q 0,207 -99,364.5 -99,157.5 -261,256.5 v 4059 q 0,297 -211.5,508.5 Q 7937,7760 7640,7760 Z m 0,-4680 V 7040 H 7640 V 3080 Z M 2240,2360 H 8000 V 1280 H 2240 Z M 4040,4880 H 6200 V 4160 H 4040 Z m 1080,180 z"
     id="path27194"
     style="fill:#808080;stroke-width:9" />
</svg>
